<?xml version="1.0" encoding="UTF-8" standalone="no"?>
<!-- Created with Inkscape (http://www.inkscape.org/) -->

<svg
   width="127.27262mm"
   height="8.8497019mm"
   viewBox="0 0 127.27262 8.8497019"
   version="1.1"
   id="svg1"
   xmlns="http://www.w3.org/2000/svg"
   xmlns:svg="http://www.w3.org/2000/svg">
  <defs
     id="defs1" />
  <g
     id="layer1"
     transform="translate(-38.111064,-126.15866)">
    <g
       id="g5">
      <path
         style="fill:#ffffff;fill-opacity:1;stroke:none;stroke-width:0.529167;stroke-dasharray:4.23333, 4.23333;stroke-dashoffset:0;stroke-opacity:1"
         id="path4"
         transform="matrix(0.42129331,0,0,0.37487887,21.749972,83.515252)"
         d="m 60.872553,132.29637 -21.41267,0 10.706335,-18.54391 z m 21.510309,0 -21.41267,0 10.706335,-18.54391 z m 21.510308,0 -21.412669,0 10.706335,-18.54391 z m 21.51031,0 -21.41267,0 10.70633,-18.54391 z m 21.51031,0 -21.41267,0 10.70633,-18.54391 z m 21.51031,0 -21.41267,0 10.70633,-18.54391 z m 21.51031,0 -21.41267,0 10.70633,-18.54391 z m 21.51031,0 -21.41267,0 10.70633,-18.54391 z m 21.5103,0 -21.41267,0 10.70634,-18.54391 z m 21.51031,0 -21.41267,0 10.70634,-18.54391 z m 21.51031,0 -21.41267,0 10.70634,-18.54391 z m 21.51031,0 -21.41267,0 10.70634,-18.54391 z m 21.51031,0 -21.41267,0 10.70634,-18.54391 z m 21.51031,0 -21.41267,0 10.70633,-18.54391 z" />
      <path
         style="fill:none;fill-opacity:1;stroke:#24c8a7;stroke-width:0.529167;stroke-dasharray:1.5875, 1.5875;stroke-dashoffset:0;stroke-opacity:1"
         d="m 38.333022,134.86433 4.510509,-6.95173 4.510508,6.95173 m 0.04113,0 4.510509,-6.95173 4.510508,6.95173 m 0.04113,0 4.510509,-6.95173 4.510508,6.95173 m 0.04113,0 4.510509,-6.95173 4.510508,6.95173 m 0.04113,0 4.510509,-6.95173 4.510508,6.95173 m 0.04113,0 4.510509,-6.95173 4.510508,6.95173 m 0.04113,0 4.510509,-6.95173 4.510503,6.95173 m 0.0411,0 4.51051,-6.95173 4.5105,6.95173 m 0.0411,0 4.51051,-6.95173 4.5105,6.95173 m 0.0411,0 4.5105,-6.95173 4.51051,6.95173 m 0.0411,0 4.51051,-6.95173 4.51051,6.95173 m 0.0411,0 4.51051,-6.95173 4.51051,6.95173 m 0.0411,0 4.51051,-6.95173 4.51051,6.95173 m 0.0411,0 4.51051,-6.95173 4.51051,6.95173"
         id="path5" />
    </g>
  </g>
</svg>
