<?xml version="1.0" encoding="UTF-8" standalone="no"?>
<!-- Created with Inkscape (http://www.inkscape.org/) -->

<svg
   width="512"
   height="512"
   viewBox="0 0 512 512"
   version="1.1"
   id="svg1"
   xml:space="preserve"
   inkscape:version="1.4 (86a8ad7, 2024-10-11)"
   sodipodi:docname="ham_logo.svg"
   xmlns:inkscape="http://www.inkscape.org/namespaces/inkscape"
   xmlns:sodipodi="http://sodipodi.sourceforge.net/DTD/sodipodi-0.dtd"
   xmlns="http://www.w3.org/2000/svg"
   xmlns:svg="http://www.w3.org/2000/svg"><sodipodi:namedview
     id="namedview1"
     pagecolor="#505050"
     bordercolor="#eeeeee"
     borderopacity="1"
     inkscape:showpageshadow="0"
     inkscape:pageopacity="0"
     inkscape:pagecheckerboard="0"
     inkscape:deskcolor="#505050"
     inkscape:document-units="px"
     inkscape:zoom="1.0261335"
     inkscape:cx="188.57196"
     inkscape:cy="348.39522"
     inkscape:window-width="1680"
     inkscape:window-height="987"
     inkscape:window-x="-8"
     inkscape:window-y="-8"
     inkscape:window-maximized="1"
     inkscape:current-layer="layer1" /><defs
     id="defs1" /><g
     inkscape:label="Capa 1"
     inkscape:groupmode="layer"
     id="layer1"><path
       id="path1"
       style="fill:#ffffff;fill-opacity:1"
       d="M 304.32227 69.599609 C 292.69373 69.944159 281.15199 79.246798 280.46289 95.785156 C 280.46289 95.785156 233.60494 96.474609 213.62109 96.474609 C 210.86469 52.372321 159.18129 72.354927 158.49219 97.851562 C 132.99555 97.851563 86.826533 119.90304 72.355469 159.18164 C 41.346048 246.00802 78.556445 385.20577 119.90234 432.06445 C 161.24823 478.92313 279.08503 479.61329 334.21289 456.87305 C 389.34075 434.13281 431.37535 372.80277 447.22461 251.52148 C 463.07387 130.24019 392.78535 97.851208 328.69922 97.162109 C 327.66557 77.867358 315.9508 69.25506 304.32227 69.599609 z M 166.76172 134.375 A 22.051144 21.362045 0 0 1 188.8125 155.73633 A 22.051144 21.362045 0 0 1 166.76172 177.09766 A 22.051144 21.362045 0 0 1 144.71094 155.73633 A 22.051144 21.362045 0 0 1 166.76172 134.375 z M 331.45703 134.375 A 22.051144 21.362045 0 0 1 353.50781 155.73633 A 22.051144 21.362045 0 0 1 331.45703 177.09766 A 22.051144 21.362045 0 0 1 309.4043 155.73633 A 22.051144 21.362045 0 0 1 331.45703 134.375 z M 255.20508 140.21094 C 269.51852 140.21094 283.83203 141.91704 283.83203 145.69336 C 283.83203 153.24598 263.36809 164.20949 256.30273 164.45312 C 249.23737 164.69675 225.84722 152.7572 226.57812 144.96094 C 226.57813 141.91552 240.89164 140.21094 255.20508 140.21094 z " /></g></svg>
